<svg className="zds-icon RC794g X9n9TI DlJ4rT cBLjNZ H3jvU7" height="1em" width="1em" focusable="false" fill="currentColor" viewBox="0 0 24 24" aria-labelledby="zalando-logo-filled-481" role="img" aria-hidden="false">
      <title id="zalando-logo-filled-481">zalando-logo-filled</title>
      <path d="M20.925 9.623c-1.542-1.945-3.713-3.808-6.534-5.505h-.02c-2.84-1.656-5.519-2.629-7.933-3.022-1.502-.248-2.232.042-2.557.228-.324.186-.933.683-1.481 2.132C1.528 5.794 1.02 8.65 1 11.982v.021c.02 3.353.528 6.188 1.4 8.527.548 1.449 1.157 1.945 1.481 2.132.325.186 1.055.476 2.557.227 2.414-.393 5.092-1.366 7.933-3.021h.02c2.82-1.697 4.992-3.56 6.534-5.506.974-1.2 1.075-1.986 1.075-2.38 0-.372-.101-1.159-1.075-2.359z" />
</svg>